<svg width="14" height="14" viewBox="0 0 14 14" fill="none" xmlns="http://www.w3.org/2000/svg">
<path fill-rule="evenodd" clip-rule="evenodd" d="M6.77339 1.16666C3.67688 1.16666 1.16666 3.62144 1.16666 6.64956C1.16666 9.67768 3.67688 12.1325 6.77339 12.1325C8.09775 12.1325 9.31486 11.6834 10.2742 10.9326L12.0965 12.71L12.145 12.7508C12.3142 12.8733 12.5541 12.8593 12.7072 12.7092C12.8756 12.5441 12.8752 12.2767 12.7064 12.1121L10.9055 10.3555C11.8212 9.37964 12.3801 8.07843 12.3801 6.64956C12.3801 3.62144 9.8699 1.16666 6.77339 1.16666ZM6.77333 2.0111C9.39289 2.0111 11.5165 4.08778 11.5165 6.64949C11.5165 9.2112 9.39289 11.2879 6.77333 11.2879C4.15376 11.2879 2.03018 9.2112 2.03018 6.64949C2.03018 4.08778 4.15376 2.0111 6.77333 2.0111Z" fill="#6C757D"/>
</svg>
